<?xml version="1.0" encoding="UTF-8"?>
<!DOCTYPE score-partwise PUBLIC "-//Recordare//DTD MusicXML 3.0.1 Partwise//EN" "http://www.musicxml.org/dtds/partwise.dtd">
<score-partwise version="3.0.1">
    <work>
        <work-title>Melodía default title</work-title>
    </work>
    <movement-number>1</movement-number>
    <movement-title>Melodía default title</movement-title>
    <identification>
        <creator type="composer">Melodía</creator>
        <encoding>
            <software>ProxyMusic 3.0.1.8e1a2c5</software>
            <encoding-date>2021-05-09</encoding-date>
        </encoding>
    </identification>
    <defaults/>
    <part-list>
        <score-part id="PNO-0">
            <part-name>Piano</part-name>
            <score-instrument id="PNO">
                <instrument-name>Piano</instrument-name>
                <instrument-abbreviation>Pno.</instrument-abbreviation>
                <instrument-sound>keyboard.piano</instrument-sound>
            </score-instrument>
        </score-part>
    </part-list>
    <!--= = = = = = = = = = = = = = = = = = = = = = = = = = = = =-->
    <part id="PNO-0">
        <!--=======================================================-->
        <measure number="0" implicit="no">
            <attributes>
                <divisions>4</divisions>
                <time>
                    <beats>4</beats>
                    <beat-type>4</beat-type>
                </time>
                <staves>2</staves>
                <clef number="1">
                    <sign>G</sign>
                    <line>2</line>
                </clef>
                <clef number="2">
                    <sign>F</sign>
                    <line>4</line>
                </clef>
            </attributes>
            <note>
                <pitch>
                    <step>B</step>
                    <alter>0</alter>
                    <octave>5</octave>
                </pitch>
                <duration>4</duration>
                <voice>1</voice>
                <type>quarter</type>
                <staff>1</staff>
            </note>
            <note>
                <pitch>
                    <step>E</step>
                    <alter>-1</alter>
                    <octave>4</octave>
                </pitch>
                <duration>1</duration>
                <voice>1</voice>
                <type>16th</type>
                <staff>1</staff>
            </note>
            <note>
                <pitch>
                    <step>D</step>
                    <alter>1</alter>
                    <octave>4</octave>
                </pitch>
                <duration>8</duration>
                <voice>1</voice>
                <type>half</type>
                <staff>1</staff>
            </note>
            <note>
                <pitch>
                    <step>A</step>
                    <alter>0</alter>
                    <octave>4</octave>
                </pitch>
                <duration>1</duration>
                <voice>1</voice>
                <type>16th</type>
                <staff>1</staff>
            </note>
            <note>
                <pitch>
                    <step>C</step>
                    <alter>0</alter>
                    <octave>4</octave>
                </pitch>
                <duration>1</duration>
                <voice>1</voice>
                <type>16th</type>
                <staff>1</staff>
            </note>
            <note>
                <pitch>
                    <step>A</step>
                    <alter>0</alter>
                    <octave>4</octave>
                </pitch>
                <duration>1</duration>
                <voice>1</voice>
                <type>16th</type>
                <staff>1</staff>
            </note>
            <backup>
                <duration>16</duration>
            </backup>
            <note>
                <pitch>
                    <step>E</step>
                    <alter>0</alter>
                    <octave>4</octave>
                </pitch>
                <duration>8</duration>
                <voice>2</voice>
                <type>half</type>
                <staff>2</staff>
            </note>
            <note>
                <pitch>
                    <step>B</step>
                    <alter>0</alter>
                    <octave>2</octave>
                </pitch>
                <duration>2</duration>
                <voice>2</voice>
                <type>eighth</type>
                <staff>2</staff>
            </note>
            <note>
                <pitch>
                    <step>E</step>
                    <alter>-1</alter>
                    <octave>4</octave>
                </pitch>
                <duration>1</duration>
                <voice>2</voice>
                <type>16th</type>
                <staff>2</staff>
            </note>
            <note>
                <pitch>
                    <step>F</step>
                    <alter>1</alter>
                    <octave>4</octave>
                </pitch>
                <duration>4</duration>
                <voice>2</voice>
                <type>quarter</type>
                <staff>2</staff>
            </note>
            <note>
                <pitch>
                    <step>C</step>
                    <alter>1</alter>
                    <octave>4</octave>
                </pitch>
                <duration>1</duration>
                <voice>2</voice>
                <type>16th</type>
                <staff>2</staff>
            </note>
            <backup>
                <duration>16</duration>
            </backup>
        </measure>
        <!--=======================================================-->
        <measure number="1" implicit="no">
            <attributes>
                <divisions>4</divisions>
            </attributes>
            <note>
                <pitch>
                    <step>G</step>
                    <alter>0</alter>
                    <octave>3</octave>
                </pitch>
                <duration>4</duration>
                <voice>1</voice>
                <type>quarter</type>
                <staff>1</staff>
            </note>
            <note>
                <pitch>
                    <step>A</step>
                    <alter>0</alter>
                    <octave>4</octave>
                </pitch>
                <duration>1</duration>
                <voice>1</voice>
                <type>16th</type>
                <staff>1</staff>
            </note>
            <note>
                <pitch>
                    <step>A</step>
                    <alter>0</alter>
                    <octave>4</octave>
                </pitch>
                <duration>1</duration>
                <voice>1</voice>
                <type>16th</type>
                <staff>1</staff>
            </note>
            <note>
                <pitch>
                    <step>B</step>
                    <alter>0</alter>
                    <octave>4</octave>
                </pitch>
                <duration>1</duration>
                <voice>1</voice>
                <type>16th</type>
                <staff>1</staff>
            </note>
            <note>
                <pitch>
                    <step>A</step>
                    <alter>-1</alter>
                    <octave>3</octave>
                </pitch>
                <duration>4</duration>
                <voice>1</voice>
                <type>quarter</type>
                <staff>1</staff>
            </note>
            <note>
                <pitch>
                    <step>A</step>
                    <alter>0</alter>
                    <octave>5</octave>
                </pitch>
                <duration>1</duration>
                <voice>1</voice>
                <type>16th</type>
                <staff>1</staff>
            </note>
            <note>
                <pitch>
                    <step>D</step>
                    <alter>-1</alter>
                    <octave>4</octave>
                </pitch>
                <duration>1</duration>
                <voice>1</voice>
                <type>16th</type>
                <staff>1</staff>
            </note>
            <note>
                <pitch>
                    <step>A</step>
                    <alter>1</alter>
                    <octave>5</octave>
                </pitch>
                <duration>1</duration>
                <voice>1</voice>
                <type>16th</type>
                <staff>1</staff>
            </note>
            <note>
                <pitch>
                    <step>G</step>
                    <alter>0</alter>
                    <octave>5</octave>
                </pitch>
                <duration>2</duration>
                <voice>1</voice>
                <type>eighth</type>
                <staff>1</staff>
            </note>
            <backup>
                <duration>16</duration>
            </backup>
            <note>
                <pitch>
                    <step>A</step>
                    <alter>0</alter>
                    <octave>2</octave>
                </pitch>
                <duration>1</duration>
                <voice>2</voice>
                <type>16th</type>
                <staff>2</staff>
            </note>
            <note>
                <pitch>
                    <step>D</step>
                    <alter>0</alter>
                    <octave>3</octave>
                </pitch>
                <duration>4</duration>
                <voice>2</voice>
                <type>quarter</type>
                <staff>2</staff>
            </note>
            <note>
                <pitch>
                    <step>D</step>
                    <alter>0</alter>
                    <octave>3</octave>
                </pitch>
                <duration>2</duration>
                <voice>2</voice>
                <type>eighth</type>
                <staff>2</staff>
            </note>
            <note>
                <pitch>
                    <step>F</step>
                    <alter>1</alter>
                    <octave>4</octave>
                </pitch>
                <duration>2</duration>
                <voice>2</voice>
                <type>eighth</type>
                <staff>2</staff>
            </note>
            <note>
                <pitch>
                    <step>G</step>
                    <alter>-1</alter>
                    <octave>4</octave>
                </pitch>
                <duration>4</duration>
                <voice>2</voice>
                <type>quarter</type>
                <staff>2</staff>
            </note>
            <note>
                <pitch>
                    <step>F</step>
                    <alter>0</alter>
                    <octave>3</octave>
                </pitch>
                <duration>1</duration>
                <voice>2</voice>
                <type>16th</type>
                <staff>2</staff>
            </note>
            <note>
                <pitch>
                    <step>F</step>
                    <alter>0</alter>
                    <octave>3</octave>
                </pitch>
                <duration>2</duration>
                <voice>2</voice>
                <type>eighth</type>
                <staff>2</staff>
            </note>
            <backup>
                <duration>16</duration>
            </backup>
        </measure>
        <!--=======================================================-->
        <measure number="2" implicit="no">
            <attributes>
                <divisions>4</divisions>
            </attributes>
            <note>
                <pitch>
                    <step>A</step>
                    <alter>0</alter>
                    <octave>4</octave>
                </pitch>
                <duration>4</duration>
                <voice>1</voice>
                <type>quarter</type>
                <staff>1</staff>
            </note>
            <note>
                <pitch>
                    <step>G</step>
                    <alter>0</alter>
                    <octave>4</octave>
                </pitch>
                <duration>2</duration>
                <voice>1</voice>
                <type>eighth</type>
                <staff>1</staff>
            </note>
            <note>
                <pitch>
                    <step>A</step>
                    <alter>0</alter>
                    <octave>4</octave>
                </pitch>
                <duration>2</duration>
                <voice>1</voice>
                <type>eighth</type>
                <staff>1</staff>
            </note>
            <note>
                <pitch>
                    <step>D</step>
                    <alter>0</alter>
                    <octave>5</octave>
                </pitch>
                <duration>8</duration>
                <voice>1</voice>
                <type>half</type>
                <staff>1</staff>
            </note>
            <backup>
                <duration>16</duration>
            </backup>
            <note>
                <pitch>
                    <step>C</step>
                    <alter>1</alter>
                    <octave>4</octave>
                </pitch>
                <duration>4</duration>
                <voice>2</voice>
                <type>quarter</type>
                <staff>2</staff>
            </note>
            <note>
                <pitch>
                    <step>A</step>
                    <alter>1</alter>
                    <octave>2</octave>
                </pitch>
                <duration>1</duration>
                <voice>2</voice>
                <type>16th</type>
                <staff>2</staff>
            </note>
            <note>
                <pitch>
                    <step>D</step>
                    <alter>-1</alter>
                    <octave>3</octave>
                </pitch>
                <duration>1</duration>
                <voice>2</voice>
                <type>16th</type>
                <staff>2</staff>
            </note>
            <note>
                <pitch>
                    <step>F</step>
                    <alter>0</alter>
                    <octave>4</octave>
                </pitch>
                <duration>2</duration>
                <voice>2</voice>
                <type>eighth</type>
                <staff>2</staff>
            </note>
            <note>
                <pitch>
                    <step>C</step>
                    <alter>0</alter>
                    <octave>3</octave>
                </pitch>
                <duration>1</duration>
                <voice>2</voice>
                <type>16th</type>
                <staff>2</staff>
            </note>
            <note>
                <pitch>
                    <step>E</step>
                    <alter>0</alter>
                    <octave>3</octave>
                </pitch>
                <duration>4</duration>
                <voice>2</voice>
                <type>quarter</type>
                <staff>2</staff>
            </note>
            <note>
                <pitch>
                    <step>C</step>
                    <alter>1</alter>
                    <octave>4</octave>
                </pitch>
                <duration>1</duration>
                <voice>2</voice>
                <type>16th</type>
                <staff>2</staff>
            </note>
            <note>
                <pitch>
                    <step>F</step>
                    <alter>0</alter>
                    <octave>3</octave>
                </pitch>
                <duration>1</duration>
                <voice>2</voice>
                <type>16th</type>
                <staff>2</staff>
            </note>
            <note>
                <pitch>
                    <step>E</step>
                    <alter>0</alter>
                    <octave>3</octave>
                </pitch>
                <duration>1</duration>
                <voice>2</voice>
                <type>16th</type>
                <staff>2</staff>
            </note>
            <backup>
                <duration>16</duration>
            </backup>
        </measure>
        <!--=======================================================-->
        <measure number="3" implicit="no">
            <attributes>
                <divisions>4</divisions>
            </attributes>
            <note>
                <pitch>
                    <step>A</step>
                    <alter>0</alter>
                    <octave>4</octave>
                </pitch>
                <duration>2</duration>
                <voice>1</voice>
                <type>eighth</type>
                <staff>1</staff>
            </note>
            <note>
                <pitch>
                    <step>A</step>
                    <alter>-1</alter>
                    <octave>3</octave>
                </pitch>
                <duration>1</duration>
                <voice>1</voice>
                <type>16th</type>
                <staff>1</staff>
            </note>
            <note>
                <pitch>
                    <step>A</step>
                    <alter>0</alter>
                    <octave>4</octave>
                </pitch>
                <duration>8</duration>
                <voice>1</voice>
                <type>half</type>
                <staff>1</staff>
            </note>
            <note>
                <pitch>
                    <step>D</step>
                    <alter>-1</alter>
                    <octave>4</octave>
                </pitch>
                <duration>1</duration>
                <voice>1</voice>
                <type>16th</type>
                <staff>1</staff>
            </note>
            <note>
                <pitch>
                    <step>F</step>
                    <alter>0</alter>
                    <octave>5</octave>
                </pitch>
                <duration>2</duration>
                <voice>1</voice>
                <type>eighth</type>
                <staff>1</staff>
            </note>
            <note>
                <pitch>
                    <step>B</step>
                    <alter>0</alter>
                    <octave>5</octave>
                </pitch>
                <duration>2</duration>
                <voice>1</voice>
                <type>eighth</type>
                <staff>1</staff>
            </note>
            <backup>
                <duration>16</duration>
            </backup>
            <note>
                <pitch>
                    <step>E</step>
                    <alter>0</alter>
                    <octave>4</octave>
                </pitch>
                <duration>2</duration>
                <voice>2</voice>
                <type>eighth</type>
                <staff>2</staff>
            </note>
            <note>
                <pitch>
                    <step>E</step>
                    <alter>0</alter>
                    <octave>3</octave>
                </pitch>
                <duration>4</duration>
                <voice>2</voice>
                <type>quarter</type>
                <staff>2</staff>
            </note>
            <note>
                <pitch>
                    <step>A</step>
                    <alter>0</alter>
                    <octave>3</octave>
                </pitch>
                <duration>8</duration>
                <voice>2</voice>
                <type>half</type>
                <staff>2</staff>
            </note>
            <note>
                <pitch>
                    <step>G</step>
                    <alter>0</alter>
                    <octave>3</octave>
                </pitch>
                <duration>2</duration>
                <voice>2</voice>
                <type>eighth</type>
                <staff>2</staff>
            </note>
            <backup>
                <duration>16</duration>
            </backup>
        </measure>
        <!--=======================================================-->
        <measure number="4" implicit="no">
            <attributes>
                <divisions>4</divisions>
            </attributes>
            <note>
                <pitch>
                    <step>A</step>
                    <alter>0</alter>
                    <octave>4</octave>
                </pitch>
                <duration>1</duration>
                <voice>1</voice>
                <type>16th</type>
                <staff>1</staff>
            </note>
            <note>
                <pitch>
                    <step>A</step>
                    <alter>0</alter>
                    <octave>4</octave>
                </pitch>
                <duration>1</duration>
                <voice>1</voice>
                <type>16th</type>
                <staff>1</staff>
            </note>
            <note>
                <pitch>
                    <step>A</step>
                    <alter>1</alter>
                    <octave>3</octave>
                </pitch>
                <duration>4</duration>
                <voice>1</voice>
                <type>quarter</type>
                <staff>1</staff>
            </note>
            <note>
                <pitch>
                    <step>E</step>
                    <alter>0</alter>
                    <octave>4</octave>
                </pitch>
                <duration>8</duration>
                <voice>1</voice>
                <type>half</type>
                <staff>1</staff>
            </note>
            <note>
                <pitch>
                    <step>G</step>
                    <alter>0</alter>
                    <octave>5</octave>
                </pitch>
                <duration>2</duration>
                <voice>1</voice>
                <type>eighth</type>
                <staff>1</staff>
            </note>
            <backup>
                <duration>16</duration>
            </backup>
            <note>
                <pitch>
                    <step>A</step>
                    <alter>0</alter>
                    <octave>3</octave>
                </pitch>
                <duration>1</duration>
                <voice>2</voice>
                <type>16th</type>
                <staff>2</staff>
            </note>
            <note>
                <pitch>
                    <step>D</step>
                    <alter>0</alter>
                    <octave>3</octave>
                </pitch>
                <duration>1</duration>
                <voice>2</voice>
                <type>16th</type>
                <staff>2</staff>
            </note>
            <note>
                <pitch>
                    <step>E</step>
                    <alter>0</alter>
                    <octave>4</octave>
                </pitch>
                <duration>8</duration>
                <voice>2</voice>
                <type>half</type>
                <staff>2</staff>
            </note>
            <note>
                <pitch>
                    <step>G</step>
                    <alter>-1</alter>
                    <octave>3</octave>
                </pitch>
                <duration>4</duration>
                <voice>2</voice>
                <type>quarter</type>
                <staff>2</staff>
            </note>
            <note>
                <pitch>
                    <step>D</step>
                    <alter>-1</alter>
                    <octave>3</octave>
                </pitch>
                <duration>2</duration>
                <voice>2</voice>
                <type>eighth</type>
                <staff>2</staff>
            </note>
            <backup>
                <duration>16</duration>
            </backup>
        </measure>
        <!--=======================================================-->
        <measure number="5" implicit="no">
            <attributes>
                <divisions>4</divisions>
            </attributes>
            <note>
                <pitch>
                    <step>C</step>
                    <alter>1</alter>
                    <octave>5</octave>
                </pitch>
                <duration>8</duration>
                <voice>1</voice>
                <type>half</type>
                <staff>1</staff>
            </note>
            <note>
                <pitch>
                    <step>A</step>
                    <alter>0</alter>
                    <octave>4</octave>
                </pitch>
                <duration>1</duration>
                <voice>1</voice>
                <type>16th</type>
                <staff>1</staff>
            </note>
            <note>
                <pitch>
                    <step>F</step>
                    <alter>1</alter>
                    <octave>4</octave>
                </pitch>
                <duration>2</duration>
                <voice>1</voice>
                <type>eighth</type>
                <staff>1</staff>
            </note>
            <note>
                <pitch>
                    <step>A</step>
                    <alter>0</alter>
                    <octave>4</octave>
                </pitch>
                <duration>2</duration>
                <voice>1</voice>
                <type>eighth</type>
                <staff>1</staff>
            </note>
            <note>
                <pitch>
                    <step>G</step>
                    <alter>0</alter>
                    <octave>4</octave>
                </pitch>
                <duration>2</duration>
                <voice>1</voice>
                <type>eighth</type>
                <staff>1</staff>
            </note>
            <note>
                <pitch>
                    <step>F</step>
                    <alter>0</alter>
                    <octave>5</octave>
                </pitch>
                <duration>1</duration>
                <voice>1</voice>
                <type>16th</type>
                <staff>1</staff>
            </note>
            <backup>
                <duration>16</duration>
            </backup>
            <note>
                <pitch>
                    <step>B</step>
                    <alter>0</alter>
                    <octave>2</octave>
                </pitch>
                <duration>1</duration>
                <voice>2</voice>
                <type>16th</type>
                <staff>2</staff>
            </note>
            <note>
                <pitch>
                    <step>E</step>
                    <alter>0</alter>
                    <octave>3</octave>
                </pitch>
                <duration>2</duration>
                <voice>2</voice>
                <type>eighth</type>
                <staff>2</staff>
            </note>
            <note>
                <pitch>
                    <step>A</step>
                    <alter>0</alter>
                    <octave>3</octave>
                </pitch>
                <duration>1</duration>
                <voice>2</voice>
                <type>16th</type>
                <staff>2</staff>
            </note>
            <note>
                <pitch>
                    <step>F</step>
                    <alter>0</alter>
                    <octave>3</octave>
                </pitch>
                <duration>8</duration>
                <voice>2</voice>
                <type>half</type>
                <staff>2</staff>
            </note>
            <note>
                <pitch>
                    <step>B</step>
                    <alter>0</alter>
                    <octave>3</octave>
                </pitch>
                <duration>2</duration>
                <voice>2</voice>
                <type>eighth</type>
                <staff>2</staff>
            </note>
            <note>
                <pitch>
                    <step>D</step>
                    <alter>-1</alter>
                    <octave>4</octave>
                </pitch>
                <duration>2</duration>
                <voice>2</voice>
                <type>eighth</type>
                <staff>2</staff>
            </note>
            <backup>
                <duration>16</duration>
            </backup>
        </measure>
        <!--=======================================================-->
        <measure number="6" implicit="no">
            <attributes>
                <divisions>4</divisions>
            </attributes>
            <note>
                <pitch>
                    <step>B</step>
                    <alter>-1</alter>
                    <octave>5</octave>
                </pitch>
                <duration>2</duration>
                <voice>1</voice>
                <type>eighth</type>
                <staff>1</staff>
            </note>
            <note>
                <pitch>
                    <step>A</step>
                    <alter>0</alter>
                    <octave>4</octave>
                </pitch>
                <duration>2</duration>
                <voice>1</voice>
                <type>eighth</type>
                <staff>1</staff>
            </note>
            <note>
                <pitch>
                    <step>D</step>
                    <alter>0</alter>
                    <octave>5</octave>
                </pitch>
                <duration>4</duration>
                <voice>1</voice>
                <type>quarter</type>
                <staff>1</staff>
            </note>
            <note>
                <pitch>
                    <step>C</step>
                    <alter>0</alter>
                    <octave>4</octave>
                </pitch>
                <duration>2</duration>
                <voice>1</voice>
                <type>eighth</type>
                <staff>1</staff>
            </note>
            <note>
                <pitch>
                    <step>B</step>
                    <alter>0</alter>
                    <octave>5</octave>
                </pitch>
                <duration>2</duration>
                <voice>1</voice>
                <type>eighth</type>
                <staff>1</staff>
            </note>
            <note>
                <pitch>
                    <step>B</step>
                    <alter>-1</alter>
                    <octave>4</octave>
                </pitch>
                <duration>4</duration>
                <voice>1</voice>
                <type>quarter</type>
                <staff>1</staff>
            </note>
            <backup>
                <duration>16</duration>
            </backup>
            <note>
                <pitch>
                    <step>A</step>
                    <alter>0</alter>
                    <octave>3</octave>
                </pitch>
                <duration>8</duration>
                <voice>2</voice>
                <type>half</type>
                <staff>2</staff>
            </note>
            <note>
                <pitch>
                    <step>A</step>
                    <alter>0</alter>
                    <octave>3</octave>
                </pitch>
                <duration>1</duration>
                <voice>2</voice>
                <type>16th</type>
                <staff>2</staff>
            </note>
            <note>
                <pitch>
                    <step>A</step>
                    <alter>0</alter>
                    <octave>3</octave>
                </pitch>
                <duration>1</duration>
                <voice>2</voice>
                <type>16th</type>
                <staff>2</staff>
            </note>
            <note>
                <pitch>
                    <step>F</step>
                    <alter>0</alter>
                    <octave>3</octave>
                </pitch>
                <duration>2</duration>
                <voice>2</voice>
                <type>eighth</type>
                <staff>2</staff>
            </note>
            <note>
                <pitch>
                    <step>D</step>
                    <alter>-1</alter>
                    <octave>3</octave>
                </pitch>
                <duration>4</duration>
                <voice>2</voice>
                <type>quarter</type>
                <staff>2</staff>
            </note>
            <backup>
                <duration>16</duration>
            </backup>
        </measure>
        <!--=======================================================-->
        <measure number="7" implicit="no">
            <attributes>
                <divisions>4</divisions>
            </attributes>
            <note>
                <pitch>
                    <step>B</step>
                    <alter>0</alter>
                    <octave>5</octave>
                </pitch>
                <duration>2</duration>
                <voice>1</voice>
                <type>eighth</type>
                <staff>1</staff>
            </note>
            <note>
                <pitch>
                    <step>A</step>
                    <alter>0</alter>
                    <octave>4</octave>
                </pitch>
                <duration>2</duration>
                <voice>1</voice>
                <type>eighth</type>
                <staff>1</staff>
            </note>
            <note>
                <pitch>
                    <step>G</step>
                    <alter>1</alter>
                    <octave>4</octave>
                </pitch>
                <duration>4</duration>
                <voice>1</voice>
                <type>quarter</type>
                <staff>1</staff>
            </note>
            <note>
                <pitch>
                    <step>G</step>
                    <alter>0</alter>
                    <octave>5</octave>
                </pitch>
                <duration>1</duration>
                <voice>1</voice>
                <type>16th</type>
                <staff>1</staff>
            </note>
            <note>
                <pitch>
                    <step>E</step>
                    <alter>0</alter>
                    <octave>4</octave>
                </pitch>
                <duration>2</duration>
                <voice>1</voice>
                <type>eighth</type>
                <staff>1</staff>
            </note>
            <note>
                <pitch>
                    <step>A</step>
                    <alter>0</alter>
                    <octave>5</octave>
                </pitch>
                <duration>4</duration>
                <voice>1</voice>
                <type>quarter</type>
                <staff>1</staff>
            </note>
            <note>
                <pitch>
                    <step>E</step>
                    <alter>0</alter>
                    <octave>5</octave>
                </pitch>
                <duration>1</duration>
                <voice>1</voice>
                <type>16th</type>
                <staff>1</staff>
            </note>
            <backup>
                <duration>16</duration>
            </backup>
            <note>
                <pitch>
                    <step>G</step>
                    <alter>-1</alter>
                    <octave>4</octave>
                </pitch>
                <duration>4</duration>
                <voice>2</voice>
                <type>quarter</type>
                <staff>2</staff>
            </note>
            <note>
                <pitch>
                    <step>F</step>
                    <alter>0</alter>
                    <octave>3</octave>
                </pitch>
                <duration>1</duration>
                <voice>2</voice>
                <type>16th</type>
                <staff>2</staff>
            </note>
            <note>
                <pitch>
                    <step>C</step>
                    <alter>1</alter>
                    <octave>3</octave>
                </pitch>
                <duration>2</duration>
                <voice>2</voice>
                <type>eighth</type>
                <staff>2</staff>
            </note>
            <note>
                <pitch>
                    <step>F</step>
                    <alter>0</alter>
                    <octave>3</octave>
                </pitch>
                <duration>8</duration>
                <voice>2</voice>
                <type>half</type>
                <staff>2</staff>
            </note>
            <note>
                <pitch>
                    <step>C</step>
                    <alter>1</alter>
                    <octave>3</octave>
                </pitch>
                <duration>1</duration>
                <voice>2</voice>
                <type>16th</type>
                <staff>2</staff>
            </note>
            <backup>
                <duration>16</duration>
            </backup>
        </measure>
    </part>
</score-partwise>