<svg xmlns="http://www.w3.org/2000/svg" xmlns:xlink="http://www.w3.org/1999/xlink" xmlns:lucid="lucid" width="891" height="618.43"><g transform="translate(-60 -60)" lucid:page-tab-id="GR8-r8di50x0"><path d="M220 86c0-3.3 2.7-6 6-6h348c3.3 0 6 2.7 6 6v148c0 3.3-2.7 6-6 6H226c-3.3 0-6-2.7-6-6z" stroke="#5e5e5e" stroke-width="3" fill="#99d2f2"/><use xlink:href="#a" transform="matrix(1,0,0,1,232.00000000000003,92) translate(131.02469135802468 60.27777777777778)"/><use xlink:href="#b" transform="matrix(1,0,0,1,232.00000000000003,92) translate(102.07407407407408 86.94444444444446)"/><use xlink:href="#c" transform="matrix(1,0,0,1,232.00000000000003,92) translate(162.50617283950618 86.94444444444446)"/><path d="M900 207.93c0 6.62-26.86 12-60 12s-60-5.38-60-12v-96c0-6.63 26.86-12 60-12s60 5.37 60 12z" stroke="#5e5e5e" stroke-width="3" fill="#99d2f2"/><path d="M900 111.93c0 6.62-26.86 12-60 12s-60-5.38-60-12" stroke="#5e5e5e" stroke-width="3" fill="none"/><use xlink:href="#d" transform="matrix(1,0,0,1,785,128.92737835875096) translate(39.598765432098766 47.34027777777778)"/><path d="M627.78 141H600v-2h27.78zm132.22-.07l-27.78.03v-2l27.78-.03zM599 144.65L584.74 140l14.26-4.63z" fill="#5e5e5e"/><path d="M600 146.02l-18.5-6L600 134zm-12.03-6l10.03 3.25v-6.52zM775.26 139.93L761 144.56v-9.27z" fill="#5e5e5e"/><path d="M778.5 139.93l-18.5 6v-12zM762 143.2l10.03-3.27-10.03-3.26z" fill="#5e5e5e"/><use xlink:href="#e" transform="matrix(1,0,0,1,627.7777777777778,129.3018815992009) translate(0.005000000000002558 14.222222222222223)"/><use xlink:href="#f" transform="matrix(1,0,0,1,627.7777777777778,129.3018815992009) translate(53.1901851851852 14.222222222222223)"/><path d="M592.53 482.57c0-2.34-2.66-4.14-5.7-4.14h-368.6c-3.04 0-5.7 1.8-5.7 4.14V654.3c0 2.33 2.66 4.13 5.7 4.13h368.6c3.04 0 5.7-1.8 5.7-4.14V482.56z" stroke="#565656" stroke-width="1.4" fill="#ffdf71"/><path d="M592.53 482.57c0-2.34-2.66-4.14-5.7-4.14h-368.6c-3.04 0-5.7 1.8-5.7 4.14V654.3c0 2.33 2.66 4.13 5.7 4.13h368.6c3.04 0 5.7-1.8 5.7-4.14V482.56z" stroke="#000" stroke-opacity="0" stroke-width=".28" fill="#ffdf71"/><path d="M218.23 478.43c-3.04 0-5.7 1.62-5.7 3.42v24.66h380v-24.65c0-1.8-2.66-3.42-5.7-3.42h-368.6z" stroke="#000" stroke-opacity="0" stroke-width=".28" fill="#e8e8e8"/><path d="M232.67 492.47c0 1.08-1.14 2.16-3.04 2.16-1.52 0-2.66-1.08-2.66-2.16s1.14-1.98 2.66-1.98c1.9 0 3.04.9 3.04 1.97zM244.07 492.47c0 1.08-1.52 2.16-3.04 2.16s-3.04-1.08-3.04-2.16 1.5-1.98 3.03-1.98c1.52 0 3.04.9 3.04 1.97zM255.1 492.47c0 1.08-1.15 2.16-2.67 2.16s-3.04-1.08-3.04-2.16 1.5-1.98 3.03-1.98c1.52 0 2.66.9 2.66 1.97z" stroke="#000" stroke-opacity="0" stroke-width=".16" fill="#949494"/><path d="M269.53 486.53h288.04c.76 0 1.52.36 1.52.9v10.08c0 .73-.77.9-1.53.9H269.53c-.76 0-1.52-.17-1.52-.9v-10.07c0-.54.77-.9 1.53-.9z" stroke="#000" stroke-opacity="0" stroke-width=".28" fill="#fff"/><path d="M281.7 489.6c-2.3 0-4.2 1.25-4.2 2.87s1.9 2.88 4.2 2.88c1.9 0 3.03-.72 3.8-1.8v-.18c-.4 0-.77-.18-1.15-.18v.17c-.38.54-1.52 1.08-2.66 1.08-1.53 0-2.67-.9-2.67-1.98s1.14-1.98 2.66-1.98c1.13 0 2.27.53 2.65 1.25h-.76l1.5 1.26 1.53-1.25h-1.14c-.4-1.26-1.9-2.16-3.8-2.16zM569.73 489.4h10.64v1.63h-10.64v-1.62zM569.73 491.75h10.64v1.62h-10.64v-1.62zM569.73 493.9h10.64v1.63h-10.64v-1.62z" stroke="#000" stroke-opacity="0" stroke-width=".28" fill="#949494"/><path d="M212.53 506.33h380v.9h-380v-.9z" stroke="#000" stroke-opacity="0" stroke-width=".28" fill="#dedede"/><path d="M291.67 489.83h64.83v4.34h-64.83z" fill="none"/><use xlink:href="#g" transform="matrix(1,0,0,1,291.66723866501053,489.8267817484857) translate(0 3.5820895522388057)"/><path d="M363.67 459.23h-2v-44.5h2zm0-65.82h-2V260h2zM362.67 474.5l-4.64-14.27h9.27z" fill="#5e5e5e"/><path d="M362.67 477.73l-6.02-18.5h12.03zm-3.26-16.5l3.27 10.03 3.26-10.03zM367.3 259h-9.27l4.64-14.26z" fill="#5e5e5e"/><path d="M368.68 260h-12.03l6.02-18.5zm-9.27-2h6.53l-3.26-10.03z" fill="#5e5e5e"/><use xlink:href="#h" transform="matrix(1,0,0,1,321.4814814814815,393.4060952367374) translate(0.005000000000002558 14.222222222222223)"/><use xlink:href="#i" transform="matrix(1,0,0,1,321.4814814814815,393.4060952367374) translate(50.869197530864206 14.222222222222223)"/><path d="M280 545.93c0-3.32 2.7-6 6-6h228c3.3 0 6 2.68 6 6v51.33c0 3.3-2.7 6-6 6H286c-3.3 0-6-2.7-6-6z" stroke="#000" stroke-opacity="0" stroke-width="3" fill="#fff" fill-opacity="0"/><use xlink:href="#j" transform="matrix(1,0,0,1,285,544.927378358751) translate(48.672839506172835 31.27777777777778)"/><use xlink:href="#k" transform="matrix(1,0,0,1,285,544.927378358751) translate(100.03086419753086 31.27777777777778)"/><path d="M95.17 379.93h9.6m9.57 0h38.36m9.6 0h19.17m9.6 0h38.34m9.6 0h19.18m9.6 0h38.34m9.6 0h19.17m9.58 0h38.36m9.6 0h19.16m9.6 0h38.35m9.6 0h19.17m9.6 0h38.34m9.6 0h19.17m9.6 0h38.34m9.6 0h19.17m9.6 0h38.35m9.57 0h19.18m9.6 0h38.35m9.6 0h19.16m9.6 0h38.35m9.6 0h19.18m9.6 0h38.34m9.6 0H939M95.2 379.93h-1.03M938.97 379.93H940" stroke="#5e5e5e" stroke-width="2" fill="none"/><g><path d="M86 574.1c-3.3 0-6-2.7-6-6V431.75c0-3.3 2.7-6 6-6h28c3.3 0 6 2.7 6 6V568.1c0 3.3-2.7 6-6 6z" stroke="#5e5e5e" stroke-width="3" fill="#ffeca9"/></g><g><use xlink:href="#l" transform="matrix(6.123233995736766e-17,-1,1,6.123233995736766e-17,85,569.0940450254176) translate(41.19753086419753 19.65277777777778)"/></g><g><path d="M86 288.26c-3.3 0-6-2.7-6-6V145.93c0-3.32 2.7-6 6-6h28c3.3 0 6 2.68 6 6v136.33c0 3.3-2.7 6-6 6z" stroke="#5e5e5e" stroke-width="3" fill="#c1e4f7"/></g><g><use xlink:href="#m" transform="matrix(6.123233995736766e-17,-1,1,6.123233995736766e-17,85,283.2607116920842) translate(36.845679012345684 19.65277777777778)"/></g><defs><path fill="#333" d="M185-189c-5-48-123-54-124 2 14 75 158 14 163 119 3 78-121 87-175 55-17-10-28-26-33-46l33-7c5 56 141 63 141-1 0-78-155-14-162-118-5-82 145-84 179-34 5 7 8 16 11 25" id="n"/><path fill="#333" d="M100-194c63 0 86 42 84 106H49c0 40 14 67 53 68 26 1 43-12 49-29l28 8c-11 28-37 45-77 45C44 4 14-33 15-96c1-61 26-98 85-98zm52 81c6-60-76-77-97-28-3 7-6 17-6 28h103" id="o"/><path fill="#333" d="M114-163C36-179 61-72 57 0H25l-1-190h30c1 12-1 29 2 39 6-27 23-49 58-41v29" id="p"/><path fill="#333" d="M108 0H70L1-190h34L89-25l56-165h34" id="q"/><path fill="#333" d="M24-231v-30h32v30H24zM24 0v-190h32V0H24" id="r"/><path fill="#333" d="M96-169c-40 0-48 33-48 73s9 75 48 75c24 0 41-14 43-38l32 2c-6 37-31 61-74 61-59 0-76-41-82-99-10-93 101-131 147-64 4 7 5 14 7 22l-32 3c-4-21-16-35-41-35" id="s"/><g id="a"><use transform="matrix(0.06172839506172839,0,0,0.06172839506172839,0,0)" xlink:href="#n"/><use transform="matrix(0.06172839506172839,0,0,0.06172839506172839,14.814814814814813,0)" xlink:href="#o"/><use transform="matrix(0.06172839506172839,0,0,0.06172839506172839,27.160493827160494,0)" xlink:href="#p"/><use transform="matrix(0.06172839506172839,0,0,0.06172839506172839,34.50617283950617,0)" xlink:href="#q"/><use transform="matrix(0.06172839506172839,0,0,0.06172839506172839,45.61728395061728,0)" xlink:href="#r"/><use transform="matrix(0.06172839506172839,0,0,0.06172839506172839,50.49382716049382,0)" xlink:href="#s"/><use transform="matrix(0.06172839506172839,0,0,0.06172839506172839,61.60493827160494,0)" xlink:href="#o"/></g><path fill="#333" d="M87 75C49 33 22-17 22-94c0-76 28-126 65-167h31c-38 41-64 92-64 168S80 34 118 75H87" id="t"/><path fill="#333" d="M153-248C145-148 188 4 80 4 36 3 13-21 6-62l32-5c4 25 16 42 43 43 27 0 39-20 39-49v-147H72v-28h81" id="u"/><path fill="#333" d="M141-36C126-15 110 5 73 4 37 3 15-17 15-53c-1-64 63-63 125-63 3-35-9-54-41-54-24 1-41 7-42 31l-33-3c5-37 33-52 76-52 45 0 72 20 72 64v82c-1 20 7 32 28 27v20c-31 9-61-2-59-35zM48-53c0 20 12 33 32 33 41-3 63-29 60-74-43 2-92-5-92 41" id="v"/><g id="b"><use transform="matrix(0.06172839506172839,0,0,0.06172839506172839,0,0)" xlink:href="#t"/><use transform="matrix(0.06172839506172839,0,0,0.06172839506172839,7.345679012345679,0)" xlink:href="#u"/><use transform="matrix(0.06172839506172839,0,0,0.06172839506172839,18.45679012345679,0)" xlink:href="#v"/><use transform="matrix(0.06172839506172839,0,0,0.06172839506172839,30.80246913580247,0)" xlink:href="#q"/><use transform="matrix(0.06172839506172839,0,0,0.06172839506172839,41.91358024691358,0)" xlink:href="#v"/></g><path fill="#333" d="M115-194c55 1 70 41 70 98S169 2 115 4C84 4 66-9 55-30l1 105H24l-1-265h31l2 30c10-21 28-34 59-34zm-8 174c40 0 45-34 45-75s-6-73-45-74c-42 0-51 32-51 76 0 43 10 73 51 73" id="w"/><path fill="#333" d="M117-194c89-4 53 116 60 194h-32v-121c0-31-8-49-39-48C34-167 62-67 57 0H25l-1-190h30c1 10-1 24 2 32 11-22 29-35 61-36" id="x"/><path fill="#333" d="M177-190C167-65 218 103 67 71c-23-6-38-20-44-43l32-5c15 47 100 32 89-28v-30C133-14 115 1 83 1 29 1 15-40 15-95c0-56 16-97 71-98 29-1 48 16 59 35 1-10 0-23 2-32h30zM94-22c36 0 50-32 50-73 0-42-14-75-50-75-39 0-46 34-46 75s6 73 46 73" id="y"/><path fill="#333" d="M33-261c38 41 65 92 65 168S71 34 33 75H2C39 34 66-17 66-93S39-220 2-261h31" id="z"/><g id="c"><use transform="matrix(0.06172839506172839,0,0,0.06172839506172839,0,0)" xlink:href="#n"/><use transform="matrix(0.06172839506172839,0,0,0.06172839506172839,14.814814814814813,0)" xlink:href="#w"/><use transform="matrix(0.06172839506172839,0,0,0.06172839506172839,27.160493827160494,0)" xlink:href="#p"/><use transform="matrix(0.06172839506172839,0,0,0.06172839506172839,34.50617283950617,0)" xlink:href="#r"/><use transform="matrix(0.06172839506172839,0,0,0.06172839506172839,39.382716049382715,0)" xlink:href="#x"/><use transform="matrix(0.06172839506172839,0,0,0.06172839506172839,51.72839506172839,0)" xlink:href="#y"/><use transform="matrix(0.06172839506172839,0,0,0.06172839506172839,64.07407407407408,0)" xlink:href="#z"/></g><path fill="#333" d="M30-248c118-7 216 8 213 122C240-48 200 0 122 0H30v-248zM63-27c89 8 146-16 146-99s-60-101-146-95v194" id="A"/><path fill="#333" d="M160-131c35 5 61 23 61 61C221 17 115-2 30 0v-248c76 3 177-17 177 60 0 33-19 50-47 57zm-97-11c50-1 110 9 110-42 0-47-63-36-110-37v79zm0 115c55-2 124 14 124-45 0-56-70-42-124-44v89" id="B"/><g id="d"><use transform="matrix(0.06172839506172839,0,0,0.06172839506172839,0,0)" xlink:href="#A"/><use transform="matrix(0.06172839506172839,0,0,0.06172839506172839,15.987654320987653,0)" xlink:href="#B"/></g><path fill="#333" d="M176-78C186 10 51 31 16-35c-5-9-9-19-11-32l52-8c4 21 12 37 35 38 23 0 32-16 32-40v-130H75v-41h101v170" id="C"/><path fill="#333" d="M24-248c120-7 223 5 221 122C244-46 201 0 124 0H24v-248zM76-40c74 7 117-18 117-86 0-67-45-88-117-82v168" id="D"/><path fill="#333" d="M182-130c37 4 62 22 62 59C244 23 116-4 24 0v-248c84 5 203-23 205 63 0 31-19 50-47 55zM76-148c40-3 101 13 101-30 0-44-60-28-101-31v61zm0 110c48-3 116 14 116-37 0-48-69-32-116-35v72" id="E"/><path fill="#333" d="M67-125c0 53 21 87 73 88 37 1 54-22 65-47l45 17C233-25 199 4 140 4 58 4 20-42 15-125 8-235 124-281 211-232c18 10 29 29 36 50l-46 12c-8-25-30-41-62-41-52 0-71 34-72 86" id="F"/><g id="e"><use transform="matrix(0.04938271604938272,0,0,0.04938271604938272,0,0)" xlink:href="#C"/><use transform="matrix(0.04938271604938272,0,0,0.04938271604938272,9.876543209876544,0)" xlink:href="#D"/><use transform="matrix(0.04938271604938272,0,0,0.04938271604938272,22.66666666666667,0)" xlink:href="#E"/><use transform="matrix(0.04938271604938272,0,0,0.04938271604938272,35.4567901234568,0)" xlink:href="#F"/></g><path fill="#333" d="M67-93c0 74 22 123 53 168H70C40 30 18-18 18-93s22-123 52-168h50c-32 44-53 94-53 168" id="G"/><path fill="#333" d="M128-127c34 4 56 21 59 58 7 91-148 94-172 28-4-9-6-17-7-26l51-5c1 24 16 35 40 36 23 0 39-12 38-36-1-31-31-36-65-34v-40c32 2 59-3 59-33 0-20-13-33-34-33s-33 13-35 32l-50-3c6-44 37-68 86-68 50 0 83 20 83 66 0 35-22 52-53 58" id="H"/><path fill="#333" d="M101-251c68 0 84 54 84 127C185-50 166 4 99 4S15-52 14-124c-1-75 17-127 87-127zm-1 216c37-5 36-46 36-89s4-89-36-89c-39 0-36 45-36 89 0 43-3 85 36 89" id="I"/><path fill="#333" d="M115-159c48 0 72 30 72 78 0 54-30 85-83 85-64 0-91-50-91-122 0-98 58-163 141-120 15 8 21 24 27 44l-47 6c-5-31-48-31-61-4-7 14-11 33-11 60 9-17 28-27 53-27zM102-35c24 0 36-20 36-45s-11-43-37-43c-23 0-36 14-36 38 0 27 11 50 37 50" id="J"/><path fill="#333" d="M102-93c0 74-22 123-52 168H0C30 29 54-18 53-93c0-74-22-123-53-168h50c30 45 52 94 52 168" id="K"/><g id="f"><use transform="matrix(0.04938271604938272,0,0,0.04938271604938272,0,0)" xlink:href="#G"/><use transform="matrix(0.04938271604938272,0,0,0.04938271604938272,5.8765432098765435,0)" xlink:href="#H"/><use transform="matrix(0.04938271604938272,0,0,0.04938271604938272,15.753086419753087,0)" xlink:href="#H"/><use transform="matrix(0.04938271604938272,0,0,0.04938271604938272,25.629629629629633,0)" xlink:href="#I"/><use transform="matrix(0.04938271604938272,0,0,0.04938271604938272,35.50617283950618,0)" xlink:href="#J"/><use transform="matrix(0.04938271604938272,0,0,0.04938271604938272,45.38271604938272,0)" xlink:href="#K"/></g><path fill="#5b5b5b" d="M106-169C34-169 62-67 57 0H25v-261h32l-1 103c12-21 28-36 61-36 89 0 53 116 60 194h-32v-121c2-32-8-49-39-48" id="L"/><path fill="#5b5b5b" d="M59-47c-2 24 18 29 38 22v24C64 9 27 4 27-40v-127H5v-23h24l9-43h21v43h35v23H59v120" id="M"/><path fill="#5b5b5b" d="M115-194c55 1 70 41 70 98S169 2 115 4C84 4 66-9 55-30l1 105H24l-1-265h31l2 30c10-21 28-34 59-34zm-8 174c40 0 45-34 45-75s-6-73-45-74c-42 0-51 32-51 76 0 43 10 73 51 73" id="N"/><path fill="#5b5b5b" d="M33-154v-36h34v36H33zM33 0v-36h34V0H33" id="O"/><path fill="#5b5b5b" d="M0 4l72-265h28L28 4H0" id="P"/><path fill="#5b5b5b" d="M100-194c63 0 86 42 84 106H49c0 40 14 67 53 68 26 1 43-12 49-29l28 8c-11 28-37 45-77 45C44 4 14-33 15-96c1-61 26-98 85-98zm52 81c6-60-76-77-97-28-3 7-6 17-6 28h103" id="Q"/><path fill="#5b5b5b" d="M141 0L90-78 38 0H4l68-98-65-92h35l48 74 47-74h35l-64 92 68 98h-35" id="R"/><path fill="#5b5b5b" d="M141-36C126-15 110 5 73 4 37 3 15-17 15-53c-1-64 63-63 125-63 3-35-9-54-41-54-24 1-41 7-42 31l-33-3c5-37 33-52 76-52 45 0 72 20 72 64v82c-1 20 7 32 28 27v20c-31 9-61-2-59-35zM48-53c0 20 12 33 32 33 41-3 63-29 60-74-43 2-92-5-92 41" id="S"/><path fill="#5b5b5b" d="M210-169c-67 3-38 105-44 169h-31v-121c0-29-5-50-35-48C34-165 62-65 56 0H25l-1-190h30c1 10-1 24 2 32 10-44 99-50 107 0 11-21 27-35 58-36 85-2 47 119 55 194h-31v-121c0-29-5-49-35-48" id="T"/><path fill="#5b5b5b" d="M24 0v-261h32V0H24" id="U"/><path fill="#5b5b5b" d="M33 0v-38h34V0H33" id="V"/><path fill="#5b5b5b" d="M96-169c-40 0-48 33-48 73s9 75 48 75c24 0 41-14 43-38l32 2c-6 37-31 61-74 61-59 0-76-41-82-99-10-93 101-131 147-64 4 7 5 14 7 22l-32 3c-4-21-16-35-41-35" id="W"/><path fill="#5b5b5b" d="M100-194c62-1 85 37 85 99 1 63-27 99-86 99S16-35 15-95c0-66 28-99 85-99zM99-20c44 1 53-31 53-75 0-43-8-75-51-75s-53 32-53 75 10 74 51 75" id="X"/><g id="g"><use transform="matrix(0.01243781094527363,0,0,0.01243781094527363,0,0)" xlink:href="#L"/><use transform="matrix(0.01243781094527363,0,0,0.01243781094527363,2.487562189054726,0)" xlink:href="#M"/><use transform="matrix(0.01243781094527363,0,0,0.01243781094527363,3.731343283582089,0)" xlink:href="#M"/><use transform="matrix(0.01243781094527363,0,0,0.01243781094527363,4.975124378109452,0)" xlink:href="#N"/><use transform="matrix(0.01243781094527363,0,0,0.01243781094527363,7.462686567164178,0)" xlink:href="#O"/><use transform="matrix(0.01243781094527363,0,0,0.01243781094527363,8.70646766169154,0)" xlink:href="#P"/><use transform="matrix(0.01243781094527363,0,0,0.01243781094527363,9.950248756218905,0)" xlink:href="#P"/><use transform="matrix(0.01243781094527363,0,0,0.01243781094527363,11.194029850746269,0)" xlink:href="#Q"/><use transform="matrix(0.01243781094527363,0,0,0.01243781094527363,13.681592039800993,0)" xlink:href="#R"/><use transform="matrix(0.01243781094527363,0,0,0.01243781094527363,15.920398009950247,0)" xlink:href="#S"/><use transform="matrix(0.01243781094527363,0,0,0.01243781094527363,18.407960199004975,0)" xlink:href="#T"/><use transform="matrix(0.01243781094527363,0,0,0.01243781094527363,22.12686567164179,0)" xlink:href="#N"/><use transform="matrix(0.01243781094527363,0,0,0.01243781094527363,24.614427860696516,0)" xlink:href="#U"/><use transform="matrix(0.01243781094527363,0,0,0.01243781094527363,25.59701492537313,0)" xlink:href="#Q"/><use transform="matrix(0.01243781094527363,0,0,0.01243781094527363,28.08457711442786,0)" xlink:href="#V"/><use transform="matrix(0.01243781094527363,0,0,0.01243781094527363,29.328358208955223,0)" xlink:href="#W"/><use transform="matrix(0.01243781094527363,0,0,0.01243781094527363,31.567164179104473,0)" xlink:href="#X"/><use transform="matrix(0.01243781094527363,0,0,0.01243781094527363,34.0547263681592,0)" xlink:href="#T"/></g><path fill="#ef8d22" d="M186 0v-106H76V0H24v-248h52v99h110v-99h50V0h-50" id="Y"/><path fill="#ef8d22" d="M136-208V0H84v-208H4v-40h212v40h-80" id="Z"/><path fill="#ef8d22" d="M24-248c93 1 206-16 204 79-1 75-69 88-152 82V0H24v-248zm52 121c47 0 100 7 100-41 0-47-54-39-100-39v80" id="aa"/><g id="h"><use transform="matrix(0.04938271604938272,0,0,0.04938271604938272,0,0)" xlink:href="#Y"/><use transform="matrix(0.04938271604938272,0,0,0.04938271604938272,12.790123456790125,0)" xlink:href="#Z"/><use transform="matrix(0.04938271604938272,0,0,0.04938271604938272,23.60493827160494,0)" xlink:href="#Z"/><use transform="matrix(0.04938271604938272,0,0,0.04938271604938272,34.41975308641975,0)" xlink:href="#aa"/></g><path fill="#ef8d22" d="M67-93c0 74 22 123 53 168H70C40 30 18-18 18-93s22-123 52-168h50c-32 44-53 94-53 168" id="ab"/><path fill="#ef8d22" d="M138-131c27 9 52 24 51 61 0 53-36 74-89 74S11-19 11-69c0-35 22-54 51-61-78-25-46-121 38-121 51 0 83 19 83 66 0 30-18 49-45 54zm-38-16c24 0 32-13 32-36 1-23-11-34-32-34-22 0-33 12-32 34 0 22 9 36 32 36zm1 116c27 0 37-17 37-43 0-25-13-39-39-39-24 0-37 15-37 40 0 27 11 42 39 42" id="ac"/><path fill="#ef8d22" d="M101-251c68 0 84 54 84 127C185-50 166 4 99 4S15-52 14-124c-1-75 17-127 87-127zm-1 216c37-5 36-46 36-89s4-89-36-89c-39 0-36 45-36 89 0 43-3 85 36 89" id="ad"/><path fill="#ef8d22" d="M102-93c0 74-22 123-52 168H0C30 29 54-18 53-93c0-74-22-123-53-168h50c30 45 52 94 52 168" id="ae"/><g id="i"><use transform="matrix(0.04938271604938272,0,0,0.04938271604938272,0,0)" xlink:href="#ab"/><use transform="matrix(0.04938271604938272,0,0,0.04938271604938272,5.8765432098765435,0)" xlink:href="#ac"/><use transform="matrix(0.04938271604938272,0,0,0.04938271604938272,15.753086419753087,0)" xlink:href="#ad"/><use transform="matrix(0.04938271604938272,0,0,0.04938271604938272,25.629629629629633,0)" xlink:href="#ae"/></g><path fill="#333" d="M266 0h-40l-56-210L115 0H75L2-248h35L96-30l15-64 43-154h32l59 218 59-218h35" id="af"/><path fill="#333" d="M115-194c53 0 69 39 70 98 0 66-23 100-70 100C84 3 66-7 56-30L54 0H23l1-261h32v101c10-23 28-34 59-34zm-8 174c40 0 45-34 45-75 0-40-5-75-45-74-42 0-51 32-51 76 0 43 10 73 51 73" id="ag"/><g id="j"><use transform="matrix(0.06172839506172839,0,0,0.06172839506172839,0,0)" xlink:href="#af"/><use transform="matrix(0.06172839506172839,0,0,0.06172839506172839,20.493827160493826,0)" xlink:href="#o"/><use transform="matrix(0.06172839506172839,0,0,0.06172839506172839,32.839506172839506,0)" xlink:href="#ag"/></g><path fill="#333" d="M100-194c62-1 85 37 85 99 1 63-27 99-86 99S16-35 15-95c0-66 28-99 85-99zM99-20c44 1 53-31 53-75 0-43-8-75-51-75s-53 32-53 75 10 74 51 75" id="ah"/><path fill="#333" d="M206 0h-36l-40-164L89 0H53L-1-190h32L70-26l43-164h34l41 164 42-164h31" id="ai"/><path fill="#333" d="M135-143c-3-34-86-38-87 0 15 53 115 12 119 90S17 21 10-45l28-5c4 36 97 45 98 0-10-56-113-15-118-90-4-57 82-63 122-42 12 7 21 19 24 35" id="aj"/><g id="k"><use transform="matrix(0.06172839506172839,0,0,0.06172839506172839,0,0)" xlink:href="#B"/><use transform="matrix(0.06172839506172839,0,0,0.06172839506172839,14.814814814814813,0)" xlink:href="#p"/><use transform="matrix(0.06172839506172839,0,0,0.06172839506172839,22.160493827160494,0)" xlink:href="#ah"/><use transform="matrix(0.06172839506172839,0,0,0.06172839506172839,34.50617283950617,0)" xlink:href="#ai"/><use transform="matrix(0.06172839506172839,0,0,0.06172839506172839,50.49382716049382,0)" xlink:href="#aj"/><use transform="matrix(0.06172839506172839,0,0,0.06172839506172839,61.60493827160494,0)" xlink:href="#o"/><use transform="matrix(0.06172839506172839,0,0,0.06172839506172839,73.95061728395062,0)" xlink:href="#p"/></g><path fill="#333" d="M212-179c-10-28-35-45-73-45-59 0-87 40-87 99 0 60 29 101 89 101 43 0 62-24 78-52l27 14C228-24 195 4 139 4 59 4 22-46 18-125c-6-104 99-153 187-111 19 9 31 26 39 46" id="ak"/><path fill="#333" d="M24 0v-261h32V0H24" id="al"/><path fill="#333" d="M59-47c-2 24 18 29 38 22v24C64 9 27 4 27-40v-127H5v-23h24l9-43h21v43h35v23H59v120" id="am"/><g id="l"><use transform="matrix(0.06172839506172839,0,0,0.06172839506172839,0,0)" xlink:href="#ak"/><use transform="matrix(0.06172839506172839,0,0,0.06172839506172839,15.987654320987653,0)" xlink:href="#al"/><use transform="matrix(0.06172839506172839,0,0,0.06172839506172839,20.864197530864196,0)" xlink:href="#r"/><use transform="matrix(0.06172839506172839,0,0,0.06172839506172839,25.74074074074074,0)" xlink:href="#o"/><use transform="matrix(0.06172839506172839,0,0,0.06172839506172839,38.08641975308642,0)" xlink:href="#x"/><use transform="matrix(0.06172839506172839,0,0,0.06172839506172839,50.432098765432094,0)" xlink:href="#am"/></g><g id="m"><use transform="matrix(0.06172839506172839,0,0,0.06172839506172839,0,0)" xlink:href="#n"/><use transform="matrix(0.06172839506172839,0,0,0.06172839506172839,14.814814814814813,0)" xlink:href="#o"/><use transform="matrix(0.06172839506172839,0,0,0.06172839506172839,27.160493827160494,0)" xlink:href="#p"/><use transform="matrix(0.06172839506172839,0,0,0.06172839506172839,34.50617283950617,0)" xlink:href="#q"/><use transform="matrix(0.06172839506172839,0,0,0.06172839506172839,45.61728395061728,0)" xlink:href="#o"/><use transform="matrix(0.06172839506172839,0,0,0.06172839506172839,57.962962962962955,0)" xlink:href="#p"/></g></defs></g></svg>