<?xml version="1.0" encoding="UTF-8" standalone="no"?>
<!-- Created with Inkscape (http://www.inkscape.org/) -->

<svg
   xmlns:dc="http://purl.org/dc/elements/1.1/"
   xmlns:cc="http://creativecommons.org/ns#"
   xmlns:rdf="http://www.w3.org/1999/02/22-rdf-syntax-ns#"
   xmlns:svg="http://www.w3.org/2000/svg"
   xmlns="http://www.w3.org/2000/svg"
   xmlns:sodipodi="http://sodipodi.sourceforge.net/DTD/sodipodi-0.dtd"
   xmlns:inkscape="http://www.inkscape.org/namespaces/inkscape"
   width="352.00003"
   height="351"
   id="svg3355"
   version="1.1"
   inkscape:version="0.48.1 r9760"
   sodipodi:docname="Documento nuevo 5">
  <defs
     id="defs3357" />
  <sodipodi:namedview
     id="base"
     pagecolor="#ffffff"
     bordercolor="#666666"
     borderopacity="1.0"
     inkscape:pageopacity="0.0"
     inkscape:pageshadow="2"
     inkscape:zoom="0.93378906"
     inkscape:cx="325.58557"
     inkscape:cy="39.129786"
     inkscape:document-units="px"
     inkscape:current-layer="layer2"
     showgrid="false"
     fit-margin-top="0"
     fit-margin-left="0"
     fit-margin-right="0"
     fit-margin-bottom="0"
     inkscape:window-width="1672"
     inkscape:window-height="871"
     inkscape:window-x="0"
     inkscape:window-y="0"
     inkscape:window-maximized="1" />
  <metadata
     id="metadata3360">
    <rdf:RDF>
      <cc:Work
         rdf:about="">
        <dc:format>image/svg+xml</dc:format>
        <dc:type
           rdf:resource="http://purl.org/dc/dcmitype/StillImage" />
        <dc:title></dc:title>
      </cc:Work>
    </rdf:RDF>
  </metadata>
  <g
     inkscape:label="Capa 1"
     inkscape:groupmode="layer"
     id="layer1"
     style="display:inline"
     transform="translate(-135.79253,-271.46381)">
    <path
       style="fill:#00483c;fill-opacity:1"
       d="m 135.79253,446.96381 0,-175.5 176.00002,0 176,0 0,175.5 0,175.5 -176,0 -176.00002,0 z"
       id="path3463"
       inkscape:connector-curvature="0"
       sodipodi:nodetypes="ccccccccc" />
  </g>
  <g
     inkscape:groupmode="layer"
     id="layer2"
     inkscape:label="uned"
     style="display:inline"
     transform="translate(-135.79253,-271.46381)">
    <g
       id="g4361"
       transform="translate(368.65927,-0.2677262)">
      <path
         sodipodi:nodetypes="cccssccsscc"
         inkscape:connector-curvature="0"
         id="path4241"
         d="m -194.09127,403.07221 16.94335,0 0,71.98557 14.29299,0 c 5.63635,0 8.80297,-4.81775 8.80297,-9.74418 l 0,-62.38337 15.91977,0 0.26773,71.66773 c 0.0272,7.27689 -8.44393,16.50197 -19.68303,16.50197 l -36.54378,0 z"
         style="fill:#fffffe;fill-opacity:1;stroke:#ffffff;stroke-width:1;stroke-linecap:butt;stroke-linejoin:miter;stroke-miterlimit:4;stroke-opacity:1;stroke-dasharray:none" />
      <path
         sodipodi:nodetypes="cccssccsscc"
         inkscape:connector-curvature="0"
         id="path4241-7"
         d="m -60.504001,490.95795 -16.94335,0 0,-71.98557 -14.29299,0 c -5.636346,0 -8.802969,4.81775 -8.802969,9.74418 l 0,62.38337 -15.91977,0 -0.26773,-71.66773 c -0.0272,-7.27689 8.44393,-16.50197 19.683033,-16.50197 l 36.543776,0 z"
         style="fill:#fffffe;fill-opacity:1;stroke:#ffffff;stroke-width:1;stroke-linecap:butt;stroke-linejoin:miter;stroke-miterlimit:4;stroke-opacity:1;stroke-dasharray:none" />
      <path
         sodipodi:nodetypes="ccssccccssccssssc"
         inkscape:connector-curvature="0"
         id="path4315"
         d="m 3.4553441,403.52721 0,16.53211 -18.8077811,0 c -3.934182,0 -7.672035,5.03465 -7.672035,8.96883 l 0,10.10667 21.9535663,0 0,16.9337 -22.0874293,0 0,14.12257 c 0,2.35067 2.669203,4.95294 5.01987,4.95294 l 21.518511,0 0.033466,16.39824 -28.78059,0 c -6.381955,0 -13.741199,-6.97094 -13.720979,-13.35286 l 0.175695,-55.45283 c 0.02695,-8.50638 10.502146,-19.20937 19.008576,-19.20937 z"
         style="fill:#fffffe;fill-opacity:1;stroke:#ffffff;stroke-width:1px;stroke-linecap:butt;stroke-linejoin:miter;stroke-opacity:1" />
      <g
         id="g4357">
        <path
           style="fill:#fffffe;fill-opacity:1;stroke:#ffffff;stroke-width:1px;stroke-linecap:butt;stroke-linejoin:miter;stroke-opacity:1"
           d="m 393.09375,403.125 0,88.15625 41.90625,0 c 6.15888,0 14.125,-5.74737 14.125,-11.90625 l 0,-60.25 c 0,-7.43061 -8.25693,-15.85036 -15.6875,-15.875 l -40.34375,-0.125 z m 16.625,16.6875 17.1875,0.0937 c 3.16309,0.0153 6.65625,5.24927 6.65625,9.875 l 0,37.5 c 0,3.83404 -3.37825,7.40625 -6,7.40625 l -17.84375,0 0,-54.875 z"
           transform="translate(-368.65927,0.2677262)"
           id="path4317"
           inkscape:connector-curvature="0" />
      </g>
    </g>
  </g>
</svg>
